<svg width="82" height="81" viewBox="0 0 82 81" fill="none" xmlns="http://www.w3.org/2000/svg">
<circle cx="41.0268" cy="40.4068" r="38.4068" stroke="#0095E9" stroke-width="4"/>
<path d="M39.7334 41.4901C39.7334 44.3303 39.1596 46.556 38.0122 48.1674C36.8728 49.7705 35.3022 50.5721 33.3003 50.5721C31.2739 50.5721 29.6951 49.7624 28.5639 48.1429C27.4409 46.5153 26.8794 44.2326 26.8794 41.2948C26.8794 38.3814 27.449 36.1109 28.5883 34.4833C29.7277 32.8557 31.3105 32.0419 33.3369 32.0419C35.3877 32.0419 36.9664 32.8597 38.0732 34.4955C39.18 36.1231 39.7334 38.4546 39.7334 41.4901ZM33.2514 48.0697C34.4396 48.0697 35.3307 47.5041 35.9248 46.3729C36.527 45.2336 36.8281 43.5328 36.8281 41.2704C36.8281 39.0731 36.5311 37.4008 35.937 36.2533C35.351 35.0977 34.4925 34.5199 33.3613 34.5199C32.1813 34.5199 31.2902 35.0936 30.688 36.2411C30.0857 37.3885 29.7846 39.0813 29.7846 41.3192C29.7846 43.4921 30.0817 45.1604 30.6757 46.3241C31.278 47.4878 32.1365 48.0697 33.2514 48.0697ZM47.4726 50.0961V34.6908H43.7739L44.8969 32.3959L50.1215 32.3959V50.0961H47.4726Z" fill="white"/>
</svg>
