<svg width="82" height="81" viewBox="0 0 82 81" fill="none" xmlns="http://www.w3.org/2000/svg">
<path d="M39.5469 40.6483C39.5469 43.4884 38.9732 45.7142 37.8257 47.3255C36.6864 48.9287 35.1157 49.7303 33.1138 49.7303C31.0874 49.7303 29.5087 48.9206 28.3775 47.3011C27.2544 45.6735 26.6929 43.3908 26.6929 40.4529C26.6929 37.5395 27.2626 35.269 28.4019 33.6414C29.5412 32.0138 31.1241 31.2 33.1504 31.2C35.2012 31.2 36.78 32.0179 37.8867 33.6536C38.9935 35.2812 39.5469 37.6128 39.5469 40.6483ZM33.065 47.2278C34.2531 47.2278 35.1442 46.6623 35.7383 45.5311C36.3405 44.3917 36.6416 42.6909 36.6416 40.4285C36.6416 38.2313 36.3446 36.5589 35.7505 35.4114C35.1646 34.2558 34.306 33.678 33.1748 33.678C31.9948 33.678 31.1037 34.2518 30.5015 35.3992C29.8993 36.5467 29.5982 38.2394 29.5982 40.4774C29.5982 42.6502 29.8952 44.3185 30.4893 45.4822C31.0915 46.646 31.9501 47.2278 33.065 47.2278ZM53.1822 46.9349V49.2542H41.2071L47.8843 41.2586C48.7144 40.2576 49.3207 39.3787 49.7032 38.6219C50.0856 37.8651 50.2769 37.1774 50.2769 36.5589C50.2769 35.6719 50.0124 34.9761 49.4834 34.4715C48.9626 33.9588 48.2464 33.7025 47.335 33.7025C46.5212 33.7025 45.8498 33.9588 45.3208 34.4715C44.7919 34.9761 44.4948 35.6434 44.4297 36.4734H41.6343C41.6343 34.8703 42.1714 33.5926 43.2456 32.6404C44.3199 31.6802 45.7643 31.2 47.5791 31.2C49.3044 31.2 50.6634 31.6435 51.6563 32.5306C52.6573 33.4176 53.1577 34.6261 53.1577 36.1561C53.1577 37.2466 52.8688 38.3493 52.291 39.4642C51.7214 40.5709 50.5088 42.1823 48.6533 44.2982L46.3828 46.9349H53.1822Z" fill="white"/>
<circle cx="40.8403" cy="40.4068" r="38.4068" stroke="#0095E9" stroke-width="4"/>
</svg>
