<svg width="82" height="81" viewBox="0 0 82 81" fill="none" xmlns="http://www.w3.org/2000/svg">
<path d="M39.3605 40.6483C39.3605 43.4885 38.7868 45.7143 37.6393 47.3256C36.5 48.9288 34.9293 49.7304 32.9274 49.7304C30.901 49.7304 29.3223 48.9206 28.1911 47.3012C27.068 45.6736 26.5065 43.3909 26.5065 40.453C26.5065 37.5396 27.0762 35.2691 28.2155 33.6415C29.3548 32.0139 30.9376 31.2001 32.964 31.2001C35.0148 31.2001 36.5936 32.018 37.7003 33.6537C38.8071 35.2813 39.3605 37.6129 39.3605 40.6483ZM32.8786 47.2279C34.0667 47.2279 34.9578 46.6623 35.5519 45.5312C36.1541 44.3918 36.4552 42.691 36.4552 40.4286C36.4552 38.2314 36.1582 36.559 35.5641 35.4115C34.9782 34.2559 34.1196 33.6781 32.9884 33.6781C31.8084 33.6781 30.9173 34.2519 30.3151 35.3993C29.7129 36.5468 29.4118 38.2395 29.4118 40.4774C29.4118 42.6503 29.7088 44.3186 30.3029 45.4823C30.9051 46.6461 31.7637 47.2279 32.8786 47.2279ZM41.6432 44.4814H44.4264V44.6278C44.4264 45.4498 44.7072 46.1049 45.2687 46.5932C45.8302 47.0815 46.5911 47.3256 47.5514 47.3256C48.6338 47.3256 49.4679 47.057 50.0539 46.5199C50.6479 45.9747 50.945 45.1934 50.945 44.1762C50.945 43.1101 50.6398 42.3085 50.0294 41.7714C49.4272 41.2261 48.5239 40.9535 47.3195 40.9535C47.2625 40.9535 47.173 40.9576 47.0509 40.9657C46.9289 40.9739 46.8353 40.9779 46.7702 40.9779V38.6342C46.8271 38.6342 46.9126 38.6383 47.0265 38.6464C47.1486 38.6545 47.2381 38.6586 47.2951 38.6586C48.353 38.6586 49.1505 38.4389 49.6876 37.9994C50.2248 37.5518 50.4933 36.8967 50.4933 36.0341C50.4933 35.2691 50.2492 34.6628 49.7609 34.2152C49.2807 33.7595 48.6338 33.5316 47.82 33.5316C46.9492 33.5316 46.2656 33.7432 45.7692 34.1664C45.2809 34.5815 45.0246 35.1674 45.0001 35.9242H42.3756C42.457 34.4024 42.9738 33.2346 43.9259 32.4208C44.8781 31.607 46.2005 31.2001 47.8932 31.2001C49.529 31.2001 50.8229 31.6273 51.7751 32.4818C52.7353 33.3363 53.2155 34.4919 53.2155 35.9486C53.2155 37.0473 52.9429 37.9506 52.3976 38.6586C51.8605 39.3585 51.1118 39.7816 50.1515 39.9281C51.2827 40.1316 52.1413 40.628 52.7272 41.4174C53.3213 42.2068 53.6183 43.2525 53.6183 44.5546C53.6183 46.1415 53.0609 47.4029 51.9459 48.3388C50.8392 49.2665 49.3377 49.7304 47.4416 49.7304C45.7244 49.7304 44.341 49.2584 43.2912 48.3144C42.2414 47.3622 41.692 46.0845 41.6432 44.4814Z" fill="white"/>
<circle cx="40.6539" cy="40.4068" r="38.4068" stroke="#0095E9" stroke-width="4"/>
</svg>
