<svg width="142" height="142" viewBox="0 0 142 142" fill="none" xmlns="http://www.w3.org/2000/svg">
<g id="arcticons-happy-svgrepo-com">
<path id="Vector" d="M70.6839 32.0208L37.2161 51.3382V89.973L70.6839 109.29L104.152 89.973V51.3382L70.6839 32.0208Z" stroke="#2C2C2C" stroke-width="5" stroke-linecap="round" stroke-linejoin="round"/>
<path id="Vector_2" d="M23.917 52.7769C28.9595 52.7769 33.0472 48.6891 33.0472 43.6466C33.0472 38.6041 28.9595 34.5164 23.917 34.5164C18.8744 34.5164 14.7867 38.6041 14.7867 43.6466C14.7867 48.6891 18.8744 52.7769 23.917 52.7769Z" stroke="#2C2C2C" stroke-width="5" stroke-linecap="round" stroke-linejoin="round"/>
<path id="Vector_3" d="M70.6839 25.7969C75.7264 25.7969 79.8142 21.7092 79.8142 16.6666C79.8142 11.6241 75.7264 7.53638 70.6839 7.53638C65.6414 7.53638 61.5536 11.6241 61.5536 16.6666C61.5536 21.7092 65.6414 25.7969 70.6839 25.7969Z" stroke="#2C2C2C" stroke-width="5" stroke-linecap="round" stroke-linejoin="round"/>
<path id="Vector_4" d="M117.451 52.7769C122.493 52.7769 126.581 48.6891 126.581 43.6466C126.581 38.6041 122.493 34.5164 117.451 34.5164C112.408 34.5164 108.321 38.6041 108.321 43.6466C108.321 48.6891 112.408 52.7769 117.451 52.7769Z" stroke="#2C2C2C" stroke-width="5" stroke-linecap="round" stroke-linejoin="round"/>
<path id="Vector_5" d="M117.451 106.795C122.493 106.795 126.581 102.707 126.581 97.6649C126.581 92.6224 122.493 88.5347 117.451 88.5347C112.408 88.5347 108.321 92.6224 108.321 97.6649C108.321 102.707 112.408 106.795 117.451 106.795Z" stroke="#2C2C2C" stroke-width="5" stroke-linecap="round" stroke-linejoin="round"/>
<path id="Vector_6" d="M70.6839 133.775C75.7264 133.775 79.8142 129.687 79.8142 124.645C79.8142 119.602 75.7264 115.514 70.6839 115.514C65.6414 115.514 61.5536 119.602 61.5536 124.645C61.5536 129.687 65.6414 133.775 70.6839 133.775Z" stroke="#2C2C2C" stroke-width="5" stroke-linecap="round" stroke-linejoin="round"/>
<path id="Vector_7" d="M23.917 106.795C28.9595 106.795 33.0472 102.707 33.0472 97.6649C33.0472 92.6224 28.9595 88.5347 23.917 88.5347C18.8744 88.5347 14.7867 92.6224 14.7867 97.6649C14.7867 102.707 18.8744 106.795 23.917 106.795Z" stroke="#2C2C2C" stroke-width="5" stroke-linecap="round" stroke-linejoin="round"/>
<path id="Vector_8" d="M37.216 89.9731L31.8142 93.0851" stroke="#2C2C2C" stroke-width="5" stroke-linecap="round" stroke-linejoin="round"/>
<path id="Vector_9" d="M70.6839 109.291V115.514" stroke="#2C2C2C" stroke-width="5" stroke-linecap="round" stroke-linejoin="round"/>
<path id="Vector_10" d="M70.6839 32.021V25.7678" stroke="#2C2C2C" stroke-width="5" stroke-linecap="round" stroke-linejoin="round"/>
<path id="Vector_11" d="M104.152 89.9731L109.554 93.0851" stroke="#2C2C2C" stroke-width="5" stroke-linecap="round" stroke-linejoin="round"/>
<path id="Vector_12" d="M104.152 51.3382L109.554 48.2263" stroke="#2C2C2C" stroke-width="5" stroke-linecap="round" stroke-linejoin="round"/>
<path id="Vector_13" d="M37.216 51.3382L31.8142 48.2263" stroke="#2C2C2C" stroke-width="5" stroke-linecap="round" stroke-linejoin="round"/>
<path id="Vector_14" d="M85.3423 80.3435C80.9738 83.7361 76.3749 85.2489 70.6839 85.2489C64.9929 85.2489 60.394 83.7361 56.0256 80.3435" stroke="#2C2C2C" stroke-width="5" stroke-linecap="round" stroke-linejoin="round"/>
<path id="Vector_15" d="M57.4268 71.2819C61.6296 71.2819 65.0367 67.8749 65.0367 63.6721C65.0367 59.4693 61.6296 56.0623 57.4268 56.0623C53.2241 56.0623 49.817 59.4693 49.817 63.6721C49.817 67.8749 53.2241 71.2819 57.4268 71.2819Z" stroke="#2C2C2C" stroke-width="5" stroke-linecap="round" stroke-linejoin="round"/>
<path id="Vector_16" d="M83.941 71.2819C88.1438 71.2819 91.5508 67.8749 91.5508 63.6721C91.5508 59.4693 88.1438 56.0623 83.941 56.0623C79.7382 56.0623 76.3312 59.4693 76.3312 63.6721C76.3312 67.8749 79.7382 71.2819 83.941 71.2819Z" stroke="#2C2C2C" stroke-width="5" stroke-linecap="round" stroke-linejoin="round"/>
</g>
</svg>
