<svg width="172" height="171" viewBox="0 0 172 171" fill="none" xmlns="http://www.w3.org/2000/svg">
<g id="pool-2-svgrepo-com 1" clip-path="url(#clip0_14_153)">
<g id="Group">
<path id="Vector" d="M103.578 99.996H104.078V99.496V88.7289V88.2289H103.578H72.1841H71.6841V88.7289V99.496V99.996H72.1841H103.578ZM66.1005 82.6204H109.661C109.699 82.6204 109.725 82.6506 109.725 82.6807V105.542C109.725 105.571 109.699 105.602 109.662 105.602H66.1005C66.0633 105.602 66.0372 105.571 66.0372 105.542V82.6801C66.0372 82.6506 66.0631 82.6204 66.1005 82.6204Z" fill="white" stroke="#0095E9"/>
<g id="Vector_2">
<mask id="path-2-inside-1_14_153" fill="white">
<path d="M171.001 94.0618C171.311 94.0618 171.564 93.8107 171.564 93.5021V86.1864C171.564 85.8777 171.311 85.6266 171.001 85.6266H126.788V50.8182C126.769 43.4397 124.293 36.3918 119.815 30.9683C117.457 28.1475 114.648 25.8891 111.464 24.259C108.045 22.5331 104.24 21.6211 100.459 21.6211C96.6669 21.6211 92.8585 22.5331 89.4374 24.262C84.7521 26.6567 80.8393 30.4797 78.122 35.3131C75.5115 39.931 74.1323 45.2939 74.1323 50.8208C74.1323 57.1806 79.3393 62.3556 85.7361 62.3556C92.1356 62.3556 97.3426 57.1809 97.3426 50.8155C97.3235 48.8302 97.9337 46.916 98.9806 45.6901C99.4695 45.103 99.8819 44.8652 99.9779 44.8163C100.214 44.7099 100.332 44.6879 100.459 44.6879C100.585 44.6879 100.706 44.7099 100.904 44.797C101.502 45.1276 102.077 45.7529 102.528 46.5585C103.204 47.7659 103.577 49.2812 103.577 50.8212V65.66H72.1838V50.8212C72.1838 43.4593 69.7054 36.4114 65.2069 30.9686C62.8631 28.1561 60.0602 25.9004 56.8787 24.2593C53.4602 22.5334 49.6545 21.6214 45.8736 21.6214C42.0709 21.6214 38.2538 22.5334 34.833 24.2623C30.1371 26.6737 26.2243 30.4937 23.5204 35.3134C20.9102 39.9639 19.5279 45.3272 19.5279 50.8212C19.5279 57.1809 24.7349 62.3559 31.1348 62.3559C37.5316 62.3559 42.7386 57.1812 42.7386 50.8212C42.7386 48.8608 43.3651 46.8971 44.3762 45.6904C44.7169 45.2806 45.0519 44.9886 45.3709 44.8166C45.6129 44.7072 45.7337 44.6883 45.8739 44.6883C45.9837 44.6883 46.1048 44.7102 46.3026 44.7973C46.9017 45.128 47.4841 45.7559 47.9433 46.5588C48.6079 47.7439 48.9738 49.2596 48.9738 50.8215V85.6276H0.7689C0.458314 85.6276 0.205627 85.8787 0.205627 86.1874V93.5021C0.205627 93.8107 0.458314 94.0618 0.7689 94.0618H48.9734C48.9734 94.0618 48.9734 134.433 48.9734 134.474C47.1407 135.099 45.6155 135.853 44.4726 136.451L43.1974 137.131C41.6997 137.934 40.4028 138.63 38.9684 139.16C37.4901 139.69 35.314 140.299 31.5933 140.318C28.9419 140.318 26.8615 140.029 24.8477 139.376C23.7212 139.013 22.6522 138.546 21.27 137.819L19.9895 137.14C18.5112 136.339 16.8351 135.435 14.7497 134.665C11.6913 133.546 8.37995 133.002 4.45645 133.002C4.45377 133.002 0.7689 133.002 0.7689 133.002C0.458314 133.002 0.205627 133.253 0.205627 133.562V140.878C0.205627 141.186 0.458314 141.437 0.7689 141.437H4.45109C7.08338 141.437 9.16612 141.721 11.1886 142.358C12.5652 142.819 13.7248 143.382 14.7691 143.914L15.8899 144.518C17.4121 145.348 19.135 146.285 21.2921 147.071C24.3283 148.202 27.6972 148.753 31.5933 148.753C35.1135 148.753 38.1799 148.305 40.9718 147.391C42.9006 146.763 44.5245 145.976 45.8602 145.285L47.2642 144.537C48.7097 143.761 49.9597 143.09 51.3557 142.576L51.6442 142.478C51.9243 142.382 52.2105 142.284 52.5291 142.202C54.326 141.681 56.2936 141.438 58.7224 141.438C61.352 141.438 63.4321 141.721 65.4603 142.358C66.1939 142.607 66.878 142.874 67.5403 143.177C68.043 143.409 68.5323 143.642 69.0404 143.914L70.1669 144.52C71.6837 145.348 73.4067 146.287 75.5664 147.071C78.6221 148.201 81.991 148.753 85.865 148.753C89.4039 148.753 92.4709 148.305 95.2431 147.39C97.271 146.73 98.9226 145.918 100.132 145.288L101.629 144.493C103.047 143.734 104.273 143.079 105.635 142.574C106.086 142.413 106.55 142.27 107.05 142.129C108.771 141.656 110.664 141.437 113.011 141.437C115.643 141.437 117.726 141.721 119.751 142.358C120.559 142.628 121.293 142.926 122.012 143.267C122.447 143.467 122.881 143.682 123.329 143.914L124.45 144.518C125.969 145.345 127.695 146.285 129.855 147.071C132.91 148.202 136.279 148.753 140.156 148.753C143.69 148.753 146.759 148.305 149.532 147.391C151.474 146.765 153.104 145.976 154.442 145.285L155.783 144.573C157.25 143.783 158.517 143.103 159.954 142.59C161.4 142.052 163.543 141.438 167.318 141.438H171.001C171.311 141.438 171.564 141.186 171.564 140.878V133.562C171.564 133.254 171.311 133.003 171.001 133.003H167.318C163.798 133.003 160.732 133.442 157.942 134.346C155.912 135.007 154.26 135.818 153.049 136.451L151.807 137.115C150.298 137.926 148.993 138.628 147.551 139.16C146.072 139.69 143.893 140.299 140.156 140.318C137.54 140.318 135.397 140.02 133.41 139.376C132.284 139.013 131.215 138.546 129.836 137.822L128.734 137.233C128.121 136.902 127.476 136.555 126.789 136.211V94.0618H171.001ZM103.578 134.365C101.671 134.99 100.066 135.768 98.7416 136.451L97.4363 137.15C95.958 137.945 94.6802 138.633 93.2377 139.16C91.7758 139.69 89.6161 140.299 85.8653 140.318C83.2494 140.318 81.1061 140.02 79.1197 139.376C78.0012 139.015 76.9322 138.548 75.545 137.822L74.4097 137.216C73.7146 136.842 72.981 136.448 72.1841 136.053V122.563H103.578C103.578 122.562 103.578 134.359 103.578 134.365ZM120.142 133.728C117.974 133.239 115.712 133.002 113.247 133.002H113.011C112.028 133.002 111.107 133.037 110.225 133.1V116.517C110.225 116.208 109.972 115.957 109.662 115.957H66.1005C65.7899 115.957 65.5373 116.208 65.5373 116.517V133.663C63.4957 133.223 61.27 133.002 58.7365 133.002C58.7311 133.002 58.7285 133.002 58.7228 133.002C57.5715 133.002 56.5523 133.043 55.6233 133.125V50.8205C55.6233 48.1061 54.9666 45.5201 53.7273 43.3439C52.6198 41.3562 51.0592 39.7883 49.3335 38.9255C48.2043 38.3575 47.0667 38.0791 45.8575 38.0791C44.6486 38.0791 43.511 38.3575 42.3842 38.9255C41.263 39.4827 40.1886 40.3621 39.2793 41.4653C37.2541 43.874 36.0918 47.2846 36.0918 50.8208C36.0918 53.5379 33.8685 55.7474 31.1348 55.7474C28.4007 55.7474 26.1774 53.5379 26.1774 50.8208C26.1774 46.46 27.2658 42.2084 29.3265 38.5297C31.4092 34.8378 34.3631 31.9348 37.8666 30.1408C40.3342 28.8875 43.1011 28.2266 45.8736 28.2266C48.6213 28.2266 51.3775 28.8875 53.8447 30.1408C56.2053 31.3481 58.3074 33.0438 60.0906 35.1734C63.6021 39.4171 65.5366 44.9713 65.5366 50.8205V71.7081C65.5366 72.0164 65.7896 72.2679 66.0999 72.2679H109.661C109.971 72.2679 110.224 72.0164 110.224 71.7081V50.8205C110.224 48.1038 109.568 45.5174 108.331 43.3439C107.221 41.3506 105.652 39.783 103.921 38.9282C102.808 38.3575 101.673 38.0791 100.459 38.0791C99.25 38.0791 98.1124 38.3575 96.9855 38.9255C95.8807 39.4773 94.801 40.3537 93.8612 41.4653C91.8304 43.904 90.6767 47.3145 90.6958 50.8208C90.6958 53.5379 88.4701 55.7474 85.7361 55.7474C83.0021 55.7474 80.7791 53.5379 80.7791 50.8208C80.7791 46.4298 81.8672 42.1811 83.9281 38.5297C86.0109 34.8378 88.9648 31.9378 92.4709 30.1408C94.9382 28.8875 97.7054 28.2266 100.478 28.2266C103.226 28.2266 105.981 28.8875 108.446 30.1408C110.826 31.3671 112.922 33.0627 114.676 35.1734C118.182 39.4088 120.122 44.966 120.141 50.8205L120.142 133.728Z"/>
</mask>
<path d="M171.001 94.0618C171.311 94.0618 171.564 93.8107 171.564 93.5021V86.1864C171.564 85.8777 171.311 85.6266 171.001 85.6266H126.788V50.8182C126.769 43.4397 124.293 36.3918 119.815 30.9683C117.457 28.1475 114.648 25.8891 111.464 24.259C108.045 22.5331 104.24 21.6211 100.459 21.6211C96.6669 21.6211 92.8585 22.5331 89.4374 24.262C84.7521 26.6567 80.8393 30.4797 78.122 35.3131C75.5115 39.931 74.1323 45.2939 74.1323 50.8208C74.1323 57.1806 79.3393 62.3556 85.7361 62.3556C92.1356 62.3556 97.3426 57.1809 97.3426 50.8155C97.3235 48.8302 97.9337 46.916 98.9806 45.6901C99.4695 45.103 99.8819 44.8652 99.9779 44.8163C100.214 44.7099 100.332 44.6879 100.459 44.6879C100.585 44.6879 100.706 44.7099 100.904 44.797C101.502 45.1276 102.077 45.7529 102.528 46.5585C103.204 47.7659 103.577 49.2812 103.577 50.8212V65.66H72.1838V50.8212C72.1838 43.4593 69.7054 36.4114 65.2069 30.9686C62.8631 28.1561 60.0602 25.9004 56.8787 24.2593C53.4602 22.5334 49.6545 21.6214 45.8736 21.6214C42.0709 21.6214 38.2538 22.5334 34.833 24.2623C30.1371 26.6737 26.2243 30.4937 23.5204 35.3134C20.9102 39.9639 19.5279 45.3272 19.5279 50.8212C19.5279 57.1809 24.7349 62.3559 31.1348 62.3559C37.5316 62.3559 42.7386 57.1812 42.7386 50.8212C42.7386 48.8608 43.3651 46.8971 44.3762 45.6904C44.7169 45.2806 45.0519 44.9886 45.3709 44.8166C45.6129 44.7072 45.7337 44.6883 45.8739 44.6883C45.9837 44.6883 46.1048 44.7102 46.3026 44.7973C46.9017 45.128 47.4841 45.7559 47.9433 46.5588C48.6079 47.7439 48.9738 49.2596 48.9738 50.8215V85.6276H0.7689C0.458314 85.6276 0.205627 85.8787 0.205627 86.1874V93.5021C0.205627 93.8107 0.458314 94.0618 0.7689 94.0618H48.9734C48.9734 94.0618 48.9734 134.433 48.9734 134.474C47.1407 135.099 45.6155 135.853 44.4726 136.451L43.1974 137.131C41.6997 137.934 40.4028 138.63 38.9684 139.16C37.4901 139.69 35.314 140.299 31.5933 140.318C28.9419 140.318 26.8615 140.029 24.8477 139.376C23.7212 139.013 22.6522 138.546 21.27 137.819L19.9895 137.14C18.5112 136.339 16.8351 135.435 14.7497 134.665C11.6913 133.546 8.37995 133.002 4.45645 133.002C4.45377 133.002 0.7689 133.002 0.7689 133.002C0.458314 133.002 0.205627 133.253 0.205627 133.562V140.878C0.205627 141.186 0.458314 141.437 0.7689 141.437H4.45109C7.08338 141.437 9.16612 141.721 11.1886 142.358C12.5652 142.819 13.7248 143.382 14.7691 143.914L15.8899 144.518C17.4121 145.348 19.135 146.285 21.2921 147.071C24.3283 148.202 27.6972 148.753 31.5933 148.753C35.1135 148.753 38.1799 148.305 40.9718 147.391C42.9006 146.763 44.5245 145.976 45.8602 145.285L47.2642 144.537C48.7097 143.761 49.9597 143.09 51.3557 142.576L51.6442 142.478C51.9243 142.382 52.2105 142.284 52.5291 142.202C54.326 141.681 56.2936 141.438 58.7224 141.438C61.352 141.438 63.4321 141.721 65.4603 142.358C66.1939 142.607 66.878 142.874 67.5403 143.177C68.043 143.409 68.5323 143.642 69.0404 143.914L70.1669 144.52C71.6837 145.348 73.4067 146.287 75.5664 147.071C78.6221 148.201 81.991 148.753 85.865 148.753C89.4039 148.753 92.4709 148.305 95.2431 147.39C97.271 146.73 98.9226 145.918 100.132 145.288L101.629 144.493C103.047 143.734 104.273 143.079 105.635 142.574C106.086 142.413 106.55 142.27 107.05 142.129C108.771 141.656 110.664 141.437 113.011 141.437C115.643 141.437 117.726 141.721 119.751 142.358C120.559 142.628 121.293 142.926 122.012 143.267C122.447 143.467 122.881 143.682 123.329 143.914L124.45 144.518C125.969 145.345 127.695 146.285 129.855 147.071C132.91 148.202 136.279 148.753 140.156 148.753C143.69 148.753 146.759 148.305 149.532 147.391C151.474 146.765 153.104 145.976 154.442 145.285L155.783 144.573C157.25 143.783 158.517 143.103 159.954 142.59C161.4 142.052 163.543 141.438 167.318 141.438H171.001C171.311 141.438 171.564 141.186 171.564 140.878V133.562C171.564 133.254 171.311 133.003 171.001 133.003H167.318C163.798 133.003 160.732 133.442 157.942 134.346C155.912 135.007 154.26 135.818 153.049 136.451L151.807 137.115C150.298 137.926 148.993 138.628 147.551 139.16C146.072 139.69 143.893 140.299 140.156 140.318C137.54 140.318 135.397 140.02 133.41 139.376C132.284 139.013 131.215 138.546 129.836 137.822L128.734 137.233C128.121 136.902 127.476 136.555 126.789 136.211V94.0618H171.001ZM103.578 134.365C101.671 134.99 100.066 135.768 98.7416 136.451L97.4363 137.15C95.958 137.945 94.6802 138.633 93.2377 139.16C91.7758 139.69 89.6161 140.299 85.8653 140.318C83.2494 140.318 81.1061 140.02 79.1197 139.376C78.0012 139.015 76.9322 138.548 75.545 137.822L74.4097 137.216C73.7146 136.842 72.981 136.448 72.1841 136.053V122.563H103.578C103.578 122.562 103.578 134.359 103.578 134.365ZM120.142 133.728C117.974 133.239 115.712 133.002 113.247 133.002H113.011C112.028 133.002 111.107 133.037 110.225 133.1V116.517C110.225 116.208 109.972 115.957 109.662 115.957H66.1005C65.7899 115.957 65.5373 116.208 65.5373 116.517V133.663C63.4957 133.223 61.27 133.002 58.7365 133.002C58.7311 133.002 58.7285 133.002 58.7228 133.002C57.5715 133.002 56.5523 133.043 55.6233 133.125V50.8205C55.6233 48.1061 54.9666 45.5201 53.7273 43.3439C52.6198 41.3562 51.0592 39.7883 49.3335 38.9255C48.2043 38.3575 47.0667 38.0791 45.8575 38.0791C44.6486 38.0791 43.511 38.3575 42.3842 38.9255C41.263 39.4827 40.1886 40.3621 39.2793 41.4653C37.2541 43.874 36.0918 47.2846 36.0918 50.8208C36.0918 53.5379 33.8685 55.7474 31.1348 55.7474C28.4007 55.7474 26.1774 53.5379 26.1774 50.8208C26.1774 46.46 27.2658 42.2084 29.3265 38.5297C31.4092 34.8378 34.3631 31.9348 37.8666 30.1408C40.3342 28.8875 43.1011 28.2266 45.8736 28.2266C48.6213 28.2266 51.3775 28.8875 53.8447 30.1408C56.2053 31.3481 58.3074 33.0438 60.0906 35.1734C63.6021 39.4171 65.5366 44.9713 65.5366 50.8205V71.7081C65.5366 72.0164 65.7896 72.2679 66.0999 72.2679H109.661C109.971 72.2679 110.224 72.0164 110.224 71.7081V50.8205C110.224 48.1038 109.568 45.5174 108.331 43.3439C107.221 41.3506 105.652 39.783 103.921 38.9282C102.808 38.3575 101.673 38.0791 100.459 38.0791C99.25 38.0791 98.1124 38.3575 96.9855 38.9255C95.8807 39.4773 94.801 40.3537 93.8612 41.4653C91.8304 43.904 90.6767 47.3145 90.6958 50.8208C90.6958 53.5379 88.4701 55.7474 85.7361 55.7474C83.0021 55.7474 80.7791 53.5379 80.7791 50.8208C80.7791 46.4298 81.8672 42.1811 83.9281 38.5297C86.0109 34.8378 88.9648 31.9378 92.4709 30.1408C94.9382 28.8875 97.7054 28.2266 100.478 28.2266C103.226 28.2266 105.981 28.8875 108.446 30.1408C110.826 31.3671 112.922 33.0627 114.676 35.1734C118.182 39.4088 120.122 44.966 120.141 50.8205L120.142 133.728Z" fill="white" stroke="#0095E9" stroke-width="2" mask="url(#path-2-inside-1_14_153)"/>
</g>
</g>
</g>
<defs>
<clipPath id="clip0_14_153">
<rect width="171.358" height="170.294" fill="white" transform="translate(0.205627 0.0400391)"/>
</clipPath>
</defs>
</svg>
