<svg width="123" height="123" viewBox="0 0 123 123" fill="none" xmlns="http://www.w3.org/2000/svg">
<g clip-path="url(#clip0_130_2726)">
<path d="M6.2115 0L0 6.2115L10.9423 25.1346L18.0384 24.0938L61.3533 67.4135L57.6586 70.9615C55.7663 72.8538 55.7663 75.7207 57.6586 77.613L59.5793 79.5384C61.4716 81.4307 64.3668 81.4307 65.7861 79.5384L71.4062 85.1538C70.9332 87.9923 71.4062 91.3653 73.7716 93.7307L99.3462 119.159C104.55 124.362 113.065 124.362 118.269 119.159C124.419 113.482 124.362 104.995 119.159 99.7908L93.7307 74.2116C91.3653 71.8462 87.9923 70.9 85.1538 71.8462L78.9423 66.2308C80.3616 64.3385 80.3616 61.4432 78.9423 60.0193L77.1683 58.25C76.7383 57.8015 76.2219 57.4446 75.6504 57.2009C75.0789 56.9571 74.4639 56.8314 73.8426 56.8314C73.2212 56.8314 72.6063 56.9571 72.0348 57.2009C71.4632 57.4446 70.9469 57.8015 70.5168 58.25L67.4135 61.3533L24.0985 18.0384L25.1298 10.9423L6.2115 0ZM98.4615 0.146654C89.1277 -0.629192 76.752 5.55865 70.9615 10.9375C63.837 18.0621 65.0008 27.377 70.6635 36.3702L60.6153 46.423L67.7115 54.4038C71.4961 51.0923 77.0784 51.0923 80.863 54.4038L82.7885 56.3245L83.2332 56.7692L87.3726 52.6298C95.9258 57.6586 104.829 58.3824 111.618 51.5938C118.241 45.4438 125.422 30.2769 122.111 21.2885L108.808 35.0361C106.915 36.9284 104.049 36.9284 102.156 35.0361L88.4039 21.2885C87.9554 20.8584 87.5986 20.3421 87.3548 19.7705C87.111 19.199 86.9853 18.5841 86.9853 17.9627C86.9853 17.3414 87.111 16.7264 87.3548 16.1549C87.5986 15.5834 87.9554 15.0671 88.4039 14.637L102.161 0.889385C100.978 0.473077 99.7956 0.260192 98.4615 0.146654ZM46.423 59.1346L29.2693 76.2837C27.426 75.8741 25.542 75.6757 23.6538 75.6923C10.4077 75.6923 0 86.1 0 99.3462C0 112.592 10.4077 123 23.6538 123C36.9 123 47.3077 112.592 47.3077 99.3462C47.3077 96.9193 46.9245 94.587 46.2717 92.3967L56.3245 82.3438L54.8485 80.4231C51.0639 76.6385 51.0923 70.9048 54.4038 67.1154L46.423 59.1346ZM83.0865 80.7211C83.6778 80.7211 84.2361 80.8346 84.7092 81.3125L112.654 109.252C113.6 110.199 113.6 111.703 112.654 112.649C111.708 113.595 110.194 113.595 109.248 112.649L81.3125 84.7092C80.3663 83.763 80.3663 82.2586 81.3125 81.3125C81.7855 80.8394 82.4951 80.7211 83.0865 80.7211ZM26.9086 87.0698L35.9255 96.0914L32.6707 108.358L20.4038 111.613L11.3822 102.591L14.637 90.3246L26.9086 87.0698Z" fill="#2C2C2C"/>
</g>
<defs>
<clipPath id="clip0_130_2726">
<rect width="123" height="123" fill="white"/>
</clipPath>
</defs>
</svg>
