<svg width="135" height="135" viewBox="0 0 135 135" fill="none" xmlns="http://www.w3.org/2000/svg">
<path d="M85.5985 43.178C85.459 42.7593 85.192 42.3947 84.8348 42.1353C84.4777 41.8759 84.0484 41.7348 83.6071 41.7316H73.1886L69.9813 31.8372C69.8435 31.4178 69.5767 31.0526 69.2191 30.7938C68.8615 30.5349 68.4313 30.3955 67.9899 30.3955C67.5484 30.3955 67.1182 30.5349 66.7606 30.7938C66.403 31.0526 66.1363 31.4178 65.9984 31.8372L62.7911 41.7316H52.3727C51.9313 41.7348 51.502 41.8759 51.1449 42.1353C50.7878 42.3947 50.5208 42.7593 50.3812 43.178C50.2419 43.6008 50.2421 44.0572 50.3817 44.4799C50.5213 44.9026 50.7931 45.2692 51.1569 45.5258L59.5629 51.6469L56.3556 61.5413C56.2171 61.9622 56.2156 62.4161 56.3512 62.8379C56.4867 63.2598 56.7525 63.6278 57.1103 63.8891C57.472 64.1449 57.9041 64.2822 58.3471 64.2822C58.79 64.2822 59.2221 64.1449 59.5838 63.8891L67.9899 57.768L76.3959 63.8891C76.7607 64.1392 77.1905 64.2776 77.6327 64.2874C78.076 64.284 78.5075 64.145 78.8695 63.8891C79.2273 63.6278 79.493 63.2598 79.6286 62.8379C79.7642 62.4161 79.7626 61.9622 79.6242 61.5413L76.4169 51.6469L84.8229 45.5258C85.1867 45.2692 85.4584 44.9026 85.5981 44.4799C85.7377 44.0572 85.7379 43.6008 85.5985 43.178ZM72.7274 49.1524C72.3675 49.4123 72.0987 49.7791 71.9594 50.2007C71.8202 50.6223 71.8175 51.077 71.9518 51.5002L73.6498 56.6989L69.2267 53.4707C68.8663 53.2117 68.4337 53.0724 67.9899 53.0724C67.5461 53.0724 67.1135 53.2117 66.7531 53.4707L62.33 56.6989L64.0279 51.5002C64.1623 51.077 64.1596 50.6223 64.0203 50.2007C63.8811 49.7791 63.6123 49.4123 63.2523 49.1524L58.8292 45.9241H64.3004C64.7432 45.9267 65.1752 45.7878 65.5334 45.5276C65.8917 45.2674 66.1574 44.8996 66.2919 44.4777L67.9899 39.279L69.6879 44.4777C69.8223 44.8996 70.0881 45.2674 70.4463 45.5276C70.8045 45.7878 71.2365 45.9267 71.6793 45.9241H77.1506L72.7274 49.1524Z" fill="#2C2C2C"/>
<path d="M67.9899 21.5657C60.8334 21.5637 53.9528 24.3263 48.7847 29.2768C43.6167 34.2272 40.5608 40.9827 40.2551 48.1327C39.9494 55.2827 42.4175 62.2743 47.1442 67.6478C51.8708 73.0213 58.4906 76.3612 65.6211 76.97C66.4177 77.0329 67.1933 77.0748 67.9899 77.0748C68.7026 77.0748 69.4363 77.0329 70.149 76.97H70.3587V76.949C77.4865 76.3403 84.1037 73.0016 88.8285 67.6301C93.5533 62.2585 96.0204 55.2695 95.7147 48.1222C95.409 40.9749 92.3541 34.222 87.188 29.2736C82.0218 24.3251 75.1437 21.5636 67.9899 21.5657ZM88.5543 60.8078C88.5487 60.8078 88.5434 60.81 88.5395 60.8139C88.5355 60.8179 88.5333 60.8232 88.5333 60.8288C86.6582 64.1893 83.9852 67.0369 80.75 69.1206C77.5147 71.2044 73.8165 72.4602 69.9813 72.7775L69.9604 72.7984H69.9394C68.6286 72.9275 67.3079 72.9205 65.9984 72.7775C60.9312 72.3457 56.1398 70.2854 52.3405 66.9046C48.5413 63.5239 45.9384 59.0042 44.9209 54.0214C43.9033 49.0386 44.5259 43.8603 46.6955 39.2607C48.865 34.6611 52.4651 30.8872 56.9574 28.5033C61.4497 26.1193 66.5929 25.2535 71.6181 26.035C76.6433 26.8166 81.2806 29.2037 84.8366 32.8394C88.3927 36.475 90.6764 41.164 91.3466 46.2053C92.0167 51.2466 91.0371 56.3694 88.5543 60.8078Z" fill="#2C2C2C"/>
<path d="M124.338 110.594L116.456 98.3728C110.817 89.6733 105.185 80.9598 99.5597 72.2324C99.9999 72.0647 100.503 71.876 101.006 71.7083C102.142 71.4808 103.222 71.0301 104.183 70.3824C105.143 69.7347 105.966 68.9029 106.603 67.935C106.959 66.8406 107.096 65.6867 107.006 64.5393C106.917 63.3919 106.601 62.2735 106.079 61.2479C105.586 60.1751 105.322 59.0115 105.303 57.831C105.823 56.822 106.543 55.9302 107.421 55.2107C108.354 54.504 109.138 53.6198 109.728 52.6088C110.318 51.5979 110.702 50.4802 110.859 49.3202C110.705 48.1624 110.321 47.0469 109.731 46.0391C109.141 45.0312 108.355 44.1513 107.421 43.4506C106.546 42.7196 105.827 41.8217 105.303 40.8093C105.322 39.6289 105.586 38.4653 106.079 37.3924C106.601 36.3705 106.916 35.2556 107.006 34.1116C107.096 32.9677 106.959 31.8172 106.603 30.7263C105.964 29.7601 105.141 28.9294 104.181 28.2819C103.22 27.6345 102.141 27.1828 101.006 26.953C99.8771 26.6674 98.8156 26.1616 97.8827 25.4646C97.4187 24.3979 97.1626 23.2524 97.128 22.0897C97.1596 20.9344 96.9629 19.7842 96.5492 18.7051C96.1356 17.6259 95.513 16.639 94.7173 15.8009C92.7137 14.6213 90.3249 14.2822 88.0721 14.8575C86.9312 15.093 85.7542 15.093 84.6133 14.8575C83.7352 14.122 83.015 13.2164 82.4961 12.1953C82.0194 11.1255 81.3346 10.1613 80.4817 9.35877C79.6287 8.55621 78.6247 7.93137 77.5279 7.5206C76.3922 7.42296 75.2483 7.55046 74.162 7.8958C73.0756 8.24113 72.0681 8.79751 71.1972 9.53302C70.245 10.2587 69.153 10.7797 67.9899 11.0633C66.8268 10.7797 65.7348 10.2587 64.7826 9.53302C63.9149 8.79912 62.9109 8.24361 61.8282 7.89829C60.7455 7.55297 59.6052 7.42462 58.4728 7.5206C57.3715 7.92775 56.3628 8.55107 55.506 9.35388C54.6492 10.1567 53.9616 11.1228 53.4837 12.1953C52.9639 13.2101 52.252 14.1142 51.3875 14.8575C50.2394 15.0927 49.0557 15.0927 47.9077 14.8575C45.6618 14.282 43.2793 14.6212 41.2835 15.8009C40.4788 16.638 39.8493 17.6273 39.4318 18.7107C39.0142 19.7942 38.8171 20.95 38.8518 22.1106C38.8304 23.2705 38.5662 24.4131 38.0762 25.4646C37.1622 26.1628 36.1127 26.6626 34.9947 26.932C32.6964 27.3968 30.6762 28.7536 29.3767 30.7053C29.0205 31.7997 28.8834 32.9536 28.9733 34.101C29.0632 35.2484 29.3784 36.3668 29.9007 37.3924C30.3935 38.4653 30.6576 39.6289 30.6763 40.8093C30.1531 41.8217 29.4333 42.7196 28.5591 43.4506C27.6246 44.1513 26.8392 45.0312 26.2489 46.0391C25.6586 47.0469 25.2752 48.1624 25.1212 49.3202C25.2775 50.4802 25.6618 51.5979 26.2518 52.6088C26.8418 53.6198 27.626 54.504 28.5591 55.2107C29.4365 55.9302 30.1571 56.822 30.6763 57.831C30.6576 59.0115 30.3935 60.1751 29.9007 61.2479C29.3788 62.2698 29.0638 63.3848 28.9739 64.5287C28.8839 65.6727 29.0208 66.8231 29.3767 67.9141C30.0104 68.8848 30.8322 69.7188 31.7935 70.3669C32.7548 71.0149 33.8361 71.4639 34.9737 71.6873C35.4558 71.876 35.9589 72.0437 36.4201 72.2324C30.7812 80.9528 25.1492 89.6663 19.5242 98.3728L11.6422 110.594C11.4149 110.936 11.2954 111.339 11.2991 111.75C11.3028 112.161 11.4297 112.562 11.6632 112.9C11.8909 113.238 12.2131 113.502 12.5895 113.658C12.9659 113.815 13.3801 113.857 13.7804 113.78L28.0979 111.118L31.5777 125.289C31.6788 125.685 31.8933 126.043 32.195 126.318C32.4967 126.594 32.8723 126.775 33.2757 126.84C33.386 126.864 33.4983 126.878 33.6111 126.882C33.9624 126.884 34.3085 126.797 34.6166 126.628C34.9248 126.46 35.1847 126.215 35.372 125.918L57.9697 90.9311C58.1374 90.973 58.2842 91.0778 58.4519 91.1197C58.7953 91.2016 59.147 91.2438 59.5 91.2455C61.4243 91.0334 63.2525 90.2934 64.7826 89.1073C65.7348 88.3816 66.8268 87.8606 67.9899 87.577C69.153 87.8606 70.245 88.3816 71.1972 89.1073C72.0687 89.8486 73.0794 90.4085 74.1701 90.7541C75.2608 91.0996 76.4095 91.2239 77.5489 91.1197C77.7166 91.0778 77.8633 90.973 78.0101 90.9311L100.608 125.918C100.795 126.215 101.055 126.46 101.363 126.628C101.671 126.797 102.017 126.884 102.369 126.882C102.482 126.878 102.594 126.864 102.704 126.84C103.107 126.775 103.483 126.594 103.785 126.318C104.086 126.043 104.301 125.685 104.402 125.289L107.882 111.118L122.199 113.78C122.6 113.855 123.013 113.812 123.389 113.655C123.765 113.499 124.087 113.236 124.317 112.9C124.55 112.562 124.677 112.161 124.681 111.75C124.684 111.339 124.565 110.936 124.338 110.594ZM34.4915 119.545L31.7035 108.204C31.5783 107.684 31.2588 107.231 30.8106 106.939C30.3624 106.647 29.8194 106.537 29.2928 106.632L17.8053 108.77L23.0459 100.658C28.2866 92.5242 33.5412 84.3907 38.8099 76.2572C38.8326 76.3536 38.8467 76.4518 38.8518 76.5507C38.8202 77.706 39.0169 78.8561 39.4306 79.9353C39.8442 81.0144 40.4668 82.0013 41.2625 82.8395C43.2665 84.0179 45.6549 84.3569 47.9077 83.7828C49.0486 83.5473 50.2256 83.5473 51.3665 83.7828C52.2495 84.5135 52.9706 85.4202 53.4837 86.4451C53.882 87.053 54.2803 87.6609 54.6996 88.2478L34.4915 119.545ZM77.2135 86.6128C77.0441 86.805 76.8272 86.9496 76.5846 87.032C75.9976 87.1578 74.4464 86.2145 73.4402 85.5646C71.8641 84.3408 69.9753 83.5852 67.9899 83.3845C66.0045 83.5852 64.1157 84.3408 62.5396 85.5646C61.5334 86.2145 59.9822 87.1787 59.4162 87.053C59.1592 86.9546 58.9292 86.7965 58.7454 86.5918C58.0962 85.8653 57.5269 85.0711 57.0474 84.223C56.18 82.4928 54.8527 81.035 53.2112 80.0095C52.2583 79.5757 51.2181 79.3677 50.1716 79.4016C49.26 79.4193 48.3501 79.4893 47.4465 79.6112C46.1468 79.758 44.3859 79.9676 43.8828 79.5693C43.3797 79.171 43.1701 77.3892 43.0234 76.0895C42.9978 74.1265 42.4242 72.2097 41.3673 70.5554C41.2005 70.346 41.0106 70.1562 40.8013 69.9894C40.7213 69.9215 40.6373 69.8585 40.5498 69.8007L40.5288 69.7797H40.5078C39.2546 68.8632 37.8495 68.1749 36.3572 67.7464C35.1204 67.3061 33.4434 66.7192 33.1499 66.0903C32.8565 65.5033 33.4434 63.8473 33.8627 62.6315C34.7024 60.8487 35.0151 58.8632 34.7641 56.9087C34.1485 55.0727 33.0212 53.4508 31.5148 52.234C30.5925 51.3116 29.3138 50.0329 29.3138 49.3202C29.3138 48.6074 30.5925 47.3287 31.5148 46.4064C33.0212 45.1895 34.1485 43.5676 34.7641 41.7317C35.0151 39.7772 34.7024 37.7916 33.8627 36.0089C33.4434 34.793 32.8565 33.137 33.1499 32.5291C33.4434 31.9212 35.1414 31.3342 36.3782 30.894C38.2679 30.4497 39.9915 29.4752 41.3463 28.085C42.4189 26.4444 43.0007 24.5317 43.0234 22.5718C43.1701 21.2721 43.3588 19.5113 43.8828 19.092C44.4069 18.6727 46.1468 18.8824 47.4465 19.0291C49.3675 19.4383 51.3648 19.3003 53.2112 18.6308C54.8576 17.6113 56.1864 16.1519 57.0474 14.4173C57.7392 13.2853 58.7034 11.7551 59.3952 11.6083C59.9822 11.4616 61.5334 12.4468 62.5396 13.0757C64.1157 14.2996 66.0045 15.0551 67.9899 15.2558C69.9753 15.0551 71.8641 14.2996 73.4402 13.0757C74.4464 12.4468 75.9767 11.4825 76.5846 11.6083C77.2764 11.7551 78.2406 13.2853 78.9324 14.4173C79.7934 16.1519 81.1222 17.6113 82.7686 18.6308C84.615 19.3003 86.6123 19.4383 88.5333 19.0291C89.833 18.8824 91.5939 18.6727 92.097 19.071C92.6001 19.4693 92.8097 21.2512 92.9564 22.5508C92.982 24.5138 93.5556 26.4306 94.6125 28.085C95.9874 29.4751 97.7222 30.455 99.6226 30.9149C100.859 31.3342 102.536 31.9212 102.83 32.55C103.123 33.137 102.536 34.793 102.117 36.0089C101.277 37.7916 100.965 39.7772 101.216 41.7317C101.831 43.5676 102.959 45.1895 104.465 46.4064C105.387 47.3287 106.666 48.6074 106.666 49.3202C106.666 50.0329 105.387 51.3116 104.465 52.234C102.959 53.4508 101.831 55.0727 101.216 56.9087C100.965 58.8632 101.277 60.8487 102.117 62.6315C102.536 63.8473 103.123 65.5033 102.83 66.1113C102.536 66.7192 100.838 67.3271 99.6226 67.7464C98.0528 68.1753 96.5798 68.9011 95.2833 69.8846C95.0509 70.0923 94.8337 70.3165 94.6335 70.5554C93.5609 72.1959 92.9791 74.1086 92.9564 76.0685C92.8097 77.3682 92.621 79.1291 92.097 79.5483C91.5729 79.9676 89.833 79.758 88.5333 79.6112C86.6131 79.1915 84.6129 79.3297 82.7686 80.0095C81.1271 81.035 79.7999 82.4928 78.9324 84.223C78.4479 85.0797 77.8715 85.881 77.2135 86.6128ZM106.687 106.632C106.16 106.537 105.617 106.647 105.169 106.939C104.721 107.231 104.402 107.684 104.276 108.204L101.488 119.545L81.2802 88.2478C81.6995 87.6609 82.0978 87.053 82.4961 86.4451C83.0098 85.4264 83.7226 84.5211 84.5923 83.7828C85.7403 83.5476 86.9241 83.5476 88.0721 83.7828C90.318 84.3584 92.7005 84.0191 94.6964 82.8395C95.4991 82.0053 96.1276 81.0196 96.5451 79.9398C96.9626 78.86 97.1608 77.7079 97.128 76.5507C97.1317 76.4517 97.1457 76.3533 97.1699 76.2572C102.432 84.3907 107.686 92.5242 112.934 100.658L118.175 108.77L106.687 106.632Z" fill="#2C2C2C"/>
</svg>
