<svg width="27" height="25" viewBox="0 0 27 25" fill="none" xmlns="http://www.w3.org/2000/svg">
<rect width="27" height="25" fill="#2C2C2C"/>
<g id="home" clip-path="url(#clip0_0_1)">
<rect width="1896" height="13141" transform="translate(-1754 -2375)" fill="#F7F7F7"/>
<g id="Group 31450">
<g id="Group 31456">
<path id="Vector" d="M1.62283 14.1058C1.73331 14.1244 1.84512 14.133 1.95698 14.1315L21.005 14.1315L20.5896 14.3317C20.1836 14.5309 19.8143 14.802 19.4981 15.1327L14.1566 20.669C13.4531 21.3651 13.3349 22.4848 13.8765 23.3221C14.5068 24.2143 15.7156 24.408 16.5765 23.7547C16.646 23.7019 16.7121 23.6443 16.7742 23.5824L26.4334 13.5709C27.1883 12.7893 27.1889 11.5216 26.4349 10.7392C26.4344 10.7387 26.4339 10.7381 26.4334 10.7376L16.7742 0.726082C16.0188 -0.0547543 14.7956 -0.0530014 14.0422 0.730024C13.9829 0.791656 13.9275 0.857231 13.8765 0.926311C13.3349 1.76359 13.4531 2.88331 14.1566 3.57936L19.4885 9.12574C19.7719 9.41983 20.0978 9.66643 20.4544 9.85658L21.0339 10.1269L2.06329 10.1269C1.07643 10.0889 0.2106 10.8034 0.0252037 11.8088C-0.145582 12.9004 0.569681 13.9288 1.62283 14.1058Z" fill="#0095E9"/>
</g>
</g>
</g>
<defs>
<clipPath id="clip0_0_1">
<rect width="1896" height="13141" fill="white" transform="translate(-1754 -2375)"/>
</clipPath>
</defs>
</svg>
